<svg width="40" height="40" viewBox="0 0 40 40" fill="none" xmlns="http://www.w3.org/2000/svg">
<path d="M0 8C0 3.58172 3.58172 0 8 0H32C36.4183 0 40 3.58172 40 8V32C40 36.4183 36.4183 40 32 40H8C3.58172 40 0 36.4183 0 32V8Z" fill="#D398E6"/>
<path d="M14.6667 26.6667C14.6667 25.2522 15.2287 23.8956 16.2288 22.8954C17.229 21.8952 18.5856 21.3333 20.0001 21.3333C21.4146 21.3333 22.7711 21.8952 23.7713 22.8954C24.7715 23.8956 25.3334 25.2522 25.3334 26.6667H14.6667ZM20.0001 20.6667C17.7901 20.6667 16.0001 18.8767 16.0001 16.6667C16.0001 14.4567 17.7901 12.6667 20.0001 12.6667C22.2101 12.6667 24.0001 14.4567 24.0001 16.6667C24.0001 18.8767 22.2101 20.6667 20.0001 20.6667Z" fill="#FAFAFA"/>
</svg>
